{
  "accessors": [
    {
      "bufferView": 2,
      "componentType": 5126,
      "count": 945,
      "max": [
        0.026864899322390556,
        -0.03275519981980324,
        5.055459976196289
      ],
      "min": [
        -3.1570498943328857,
        -1.0129300355911255,
        3.212510108947754
      ],
      "type": "VEC3"
    },
    {
      "bufferView": 2,
      "byteOffset": 11340,
      "componentType": 5126,
      "count": 945,
      "max": [
        0.9984536170959473,
        0.9999690055847168,
        0.9898273944854736
      ],
      "min": [
        -0.9996901750564575,
        -0.9999380111694336,
        -0.9999690055847168
      ],
      "type": "VEC3"
    },
    {
      "bufferView": 1,
      "componentType": 5126,
      "count": 945,
      "max": [
        0.991346001625061,
        0.9908350110054016
      ],
      "min": [
        0.020976999774575233,
        0.0169840008020401
      ],
      "type": "VEC2"
    },
    {
      "bufferView": 0,
      "componentType": 5125,
      "count": 4452,
      "type": "SCALAR"
    },
    {
      "bufferView": 2,
      "byteOffset": 22680,
      "componentType": 5126,
      "count": 2587,
      "max": [
        -0.787194013595581,
        -0.14680199325084686,
        3.840329885482788
      ],
      "min": [
        -2.3076000213623047,
        -1.0394699573516846,
        2.8168599605560303
      ],
      "type": "VEC3"
    },
    {
      "bufferView": 2,
      "byteOffset": 53724,
      "componentType": 5126,
      "count": 2587,
      "max": [
        0.9999380111694336,
        1.0,
        1.0
      ],
      "min": [
        -0.9999380111694336,
        -0.9999380111694336,
        -0.9997521042823792
      ],
      "type": "VEC3"
    },
    {
      "bufferView": 1,
      "byteOffset": 7560,
      "componentType": 5126,
      "count": 2587,
      "max": [
        0.9955000281333923,
        0.9840999841690063
      ],
      "min": [
        0.0052999998442828655,
        0.020400000736117363
      ],
      "type": "VEC2"
    },
    {
      "bufferView": 0,
      "byteOffset": 17808,
      "componentType": 5125,
      "count": 8484,
      "type": "SCALAR"
    },
    {
      "bufferView": 2,
      "byteOffset": 84768,
      "componentType": 5126,
      "count": 410,
      "max": [
        -0.8028810024261475,
        0.08731590211391449,
        1.3768999576568604
      ],
      "min": [
        -2.2860400676727295,
        -0.9626330137252808,
        1.0001200437545776
      ],
      "type": "VEC3"
    },
    {
      "bufferView": 2,
      "byteOffset": 89688,
      "componentType": 5126,
      "count": 410,
      "max": [
        0.9994733929634094,
        0.9541767239570618,
        0.996392548084259
      ],
      "min": [
        -0.9909899830818176,
        -0.9946886897087097,
        -0.9992259740829468
      ],
      "type": "VEC3"
    },
    {
      "bufferView": 1,
      "byteOffset": 28256,
      "componentType": 5126,
      "count": 410,
      "max": [
        0.9980180263519287,
        0.9914209842681885
      ],
      "min": [
        0.007333999965339899,
        0.016721999272704124
      ],
      "type": "VEC2"
    },
    {
      "bufferView": 0,
      "byteOffset": 51744,
      "componentType": 5125,
      "count": 1368,
      "type": "SCALAR"
    },
    {
      "bufferView": 2,
      "byteOffset": 94608,
      "componentType": 5126,
      "count": 4211,
      "max": [
        0.2095469981431961,
        0.07341299951076508,
        6.472449779510498
      ],
      "min": [
        -3.301959991455078,
        -1.8061100244522095,
        1.0765399932861328
      ],
      "type": "VEC3"
    },
    {
      "bufferView": 2,
      "byteOffset": 145140,
      "componentType": 5126,
      "count": 4211,
      "max": [
        1.0,
        1.0,
        1.0
      ],
      "min": [
        -1.0,
        -1.0,
        -0.9998760223388672
      ],
      "type": "VEC3"
    },
    {
      "bufferView": 1,
      "byteOffset": 31536,
      "componentType": 5126,
      "count": 4211,
      "max": [
        0.9978430271148682,
        0.9965919852256775
      ],
      "min": [
        0.002458619885146618,
        0.20246200263500214
      ],
      "type": "VEC2"
    },
    {
      "bufferView": 0,
      "byteOffset": 57216,
      "componentType": 5125,
      "count": 14142,
      "type": "SCALAR"
    }
  ],
  "asset": {
    "extras": {
      "author": "BlueCheese (https://sketchfab.com/BlueCheeze)",
      "license": "CC-BY-4.0 (http://creativecommons.org/licenses/by/4.0/)",
      "source": "https://sketchfab.com/3d-models/roblox-r6-girl-with-layered-clothes-2fd3ff8d8709434286fa13652333de0f",
      "title": "Roblox R6 Girl with Layered clothes"
    },
    "generator": "Sketchfab-12.66.0",
    "version": "2.0"
  },
  "bufferViews": [
    {
      "buffer": 0,
      "byteLength": 113784,
      "name": "floatBufferViews",
      "target": 34963
    },
    {
      "buffer": 0,
      "byteLength": 65224,
      "byteOffset": 113784,
      "byteStride": 8,
      "name": "floatBufferViews",
      "target": 34962
    },
    {
      "buffer": 0,
      "byteLength": 195672,
      "byteOffset": 179008,
      "byteStride": 12,
      "name": "floatBufferViews",
      "target": 34962
    }
  ],
  "buffers": [
    {
      "byteLength": 374680,
      "uri": "scene.bin"
    }
  ],
  "images": [
    {
      "uri": "textures/Girl1Mtl_baseColor.png"
    },
    {
      "uri": "textures/Girl3Mtl_baseColor.png"
    },
    {
      "uri": "textures/Girl4Mtl_baseColor.png"
    },
    {
      "uri": "textures/Girl5Mtl_baseColor.png"
    }
  ],
  "materials": [
    {
      "doubleSided": true,
      "name": "Girl1Mtl",
      "pbrMetallicRoughness": {
        "baseColorTexture": {
          "index": 0
        },
        "metallicFactor": 0.0
      }
    },
    {
      "doubleSided": true,
      "name": "Girl3Mtl",
      "pbrMetallicRoughness": {
        "baseColorTexture": {
          "index": 1
        },
        "metallicFactor": 0.0
      }
    },
    {
      "doubleSided": true,
      "name": "Girl4Mtl",
      "pbrMetallicRoughness": {
        "baseColorTexture": {
          "index": 2
        },
        "metallicFactor": 0.0
      }
    },
    {
      "doubleSided": true,
      "name": "Girl5Mtl",
      "pbrMetallicRoughness": {
        "baseColorTexture": {
          "index": 3
        },
        "metallicFactor": 0.0
      }
    }
  ],
  "meshes": [
    {
      "name": "Object_0",
      "primitives": [
        {
          "attributes": {
            "NORMAL": 1,
            "POSITION": 0,
            "TEXCOORD_0": 2
          },
          "indices": 3,
          "material": 2,
          "mode": 4
        }
      ]
    },
    {
      "name": "Object_1",
      "primitives": [
        {
          "attributes": {
            "NORMAL": 5,
            "POSITION": 4,
            "TEXCOORD_0": 6
          },
          "indices": 7,
          "material": 3,
          "mode": 4
        }
      ]
    },
    {
      "name": "Object_2",
      "primitives": [
        {
          "attributes": {
            "NORMAL": 9,
            "POSITION": 8,
            "TEXCOORD_0": 10
          },
          "indices": 11,
          "material": 0,
          "mode": 4
        }
      ]
    },
    {
      "name": "Object_3",
      "primitives": [
        {
          "attributes": {
            "NORMAL": 13,
            "POSITION": 12,
            "TEXCOORD_0": 14
          },
          "indices": 15,
          "material": 1,
          "mode": 4
        }
      ]
    }
  ],
  "nodes": [
    {
      "children": [
        1
      ],
      "matrix": [
        1.0,
        0.0,
        0.0,
        0.0,
        0.0,
        2.220446049250313e-16,
        -1.0,
        0.0,
        0.0,
        1.0,
        2.220446049250313e-16,
        0.0,
        0.0,
        0.0,
        0.0,
        1.0
      ],
      "name": "Sketchfab_model"
    },
    {
      "children": [
        2,
        3,
        4,
        5
      ],
      "name": "Layered Girl.obj.cleaner.materialmerger.gles"
    },
    {
      "mesh": 0,
      "name": "Object_2"
    },
    {
      "mesh": 1,
      "name": "Object_3"
    },
    {
      "mesh": 2,
      "name": "Object_4"
    },
    {
      "mesh": 3,
      "name": "Object_5"
    }
  ],
  "samplers": [
    {
      "magFilter": 9729,
      "minFilter": 9987,
      "wrapS": 10497,
      "wrapT": 10497
    }
  ],
  "scene": 0,
  "scenes": [
    {
      "name": "Sketchfab_Scene",
      "nodes": [
        0
      ]
    }
  ],
  "textures": [
    {
      "sampler": 0,
      "source": 0
    },
    {
      "sampler": 0,
      "source": 1
    },
    {
      "sampler": 0,
      "source": 2
    },
    {
      "sampler": 0,
      "source": 3
    }
  ]
}
